#!OML:ASF H:\Male1\Project 1\Capture day 1\Session 1\Male1.ASF
:FULLY-SPECIFIED
:DEGREES
341
root -14.9965 14.3742 1.73681 12.7889 -61.5837 -8.67803
lowerback 29.7394 0.845063 -1.48967
upperback 14.0251 -0.404458 -1.53997
thorax -0.540837 -0.631024 -0.717775
lowerneck -2.60018 -3.08458 3.31613
upperneck -23.2479 -4.2087 3.5086
head -6.65888 -2.91263 0.815084
rclavicle -1.27222e-014 5.56597e-015
rhumerus 25.2686 53.5643 -60.4626
rradius 86.5971
rwrist -41.9039
rhand -30.0151 2.27361
rfingers 7.12502
rthumb -3.33204 -27.6801
lclavicle -1.27222e-014 5.56597e-015
lhumerus -0.470266 -30.7636 51.0414
lradius 100.641
lwrist 38.5933
lhand -19.3936 12.9802
lfingers 7.12502
lthumb 6.92526 42.847
rfemur -42.1657 0.0858128 22.0049
rtibia 42.9647
rfoot -10.1594 -16.9256
rtoes -34.6189
lfemur -37.6592 -5.47553 -16.6058
ltibia 54.5455
lfoot -21.0612 4.04621
ltoes -0.502665
342
root -15 14.4606 1.76216 11.8222 -61.5215 -8.2753
lowerback 28.7727 0.90794 -1.43425
upperback 13.6665 -0.236133 -1.58428
thorax -0.519004 -0.520701 -0.843359
lowerneck -2.81424 -3.45886 3.21386
upperneck -22.2716 -4.67597 3.76621
head -6.29608 -3.11027 0.908788
rclavicle 1.90833e-014 -5.96354e-014
rhumerus 27.2037 53.8931 -59.0375
rradius 86.6017
rwrist -39.8757
rhand -28.3594 3.7803
rfingers 7.12502
rthumb -1.73304 -26.1924
lclavicle 1.90833e-014 -5.96354e-014
lhumerus -0.780457 -30.9791 48.6566
lradius 101.902
lwrist 38.9953
lhand -22.5667 11.9932
lfingers 7.12502
lthumb 3.86156 41.938
rfemur -40.8453 -0.281211 21.7487
rtibia 42.8469
rfoot -11.5929 -16.4227
rtoes -36.9578
lfemur -35.9554 -5.28919 -17.0272
ltibia 52.909
lfoot -20.5549 3.94553
ltoes -1.35527
343
root -14.9994 14.5231 1.78189 10.7127 -61.7054 -7.72775
lowerback 27.9458 1.16258 -1.7717
upperback 13.2747 0.0753342 -1.51939
thorax -0.588712 -0.363957 -0.661409
lowerneck -2.96058 -3.82046 3.063
upperneck -21.4009 -5.14789 3.89587
head -5.98235 -3.30162 0.970641
rclavicle -1.90833e-014 7.15625e-015
rhumerus 29.7665 54.3778 -56.7069
rradius 86.8957
rwrist -39.2072
rhand -27.5688 4.72148
rfingers 7.12502
rthumb -0.969435 -25.2561
lclavicle -1.90833e-014 7.15625e-015
lhumerus -1.06611 -30.7457 46.4612
lradius 103.016
lwrist 38.8136
lhand -24.6185 10.928
lfingers 7.12502
lthumb 1.87998 40.8994
rfemur -39.3899 -1.12224 21.8342
rtibia 43.2296
rfoot -13.2519 -15.6236
rtoes -38.437
lfemur -34.328 -5.0819 -17.5233
ltibia 51.4085
lfoot -20.1486 3.92775
ltoes -0.845304
344
root -14.9897 14.5754 1.80652 9.87661 -61.9634 -7.48569
lowerback 27.1464 1.42187 -1.9191
upperback 12.9104 0.439125 -1.40282
thorax -0.635826 -0.175389 -0.542585
lowerneck -3.08844 -4.20611 2.87995
upperneck -20.6754 -5.67073 3.93146
head -5.72078 -3.51625 1.01158
rclavicle -3.10104e-014 -6.91771e-014
rhumerus 32.612 54.4996 -53.9928
rradius 87.1878
rwrist -38.4457
rhand -24.6453 4.42286
rfingers 7.12502
rthumb 1.85412 -25.5488
lclavicle -3.10104e-014 -6.91771e-014
lhumerus -1.23863 -30.0152 44.4231
lradius 103.91
lwrist 37.3313
lhand -25.7467 9.57722
lfingers 7.12502
lthumb 0.790406 39.5555
rfemur -38.0082 -2.19852 22.1004
rtibia 44.0181
rfoot -15.7212 -15.8391
rtoes -34.9632
lfemur -32.7562 -4.91651 -17.8906
ltibia 49.9668
lfoot -19.7688 4.01913
ltoes 0.589638
345
root -14.9769 14.6308 1.83195 9.4567 -62.334 -7.67239
lowerback 26.2818 1.68013 -1.62228
upperback 12.6024 0.896668 -1.40657
thorax -0.577417 0.0815227 -0.826598
lowerneck -3.31596 -4.62492 2.60465
upperneck -19.964 -6.20689 4.19855
head -5.43668 -3.74839 1.13477
rclavicle 3.97569e-015 1.66979e-014
rhumerus 35.4204 54.3333 -51.3025
rradius 87.5355
rwrist -36.5931
rhand -23.814 5.23281
rfingers 7.12502
rthumb 2.65701 -24.7304
lclavicle 3.97569e-015 1.66979e-014
lhumerus -1.06448 -29.0442 42.0298
lradius 104.63
lwrist 34.8462
lhand -26.3559 8.15355
lfingers 7.12502
lthumb 0.202023 38.1332
rfemur -36.644 -3.14491 22.5194
rtibia 45.1447
rfoot -17.0906 -17.4
rtoes -33.9339
lfemur -31.2695 -4.71119 -18.0254
ltibia 48.6331
lfoot -19.4173 4.33136
ltoes 0.940668
346
root -14.9624 14.6885 1.8582 9.02948 -62.7899 -7.76176
lowerback 25.3304 1.95066 -1.49497
upperback 12.2405 1.3371 -1.40809
thorax -0.530349 0.324379 -0.998029
lowerneck -3.44132 -4.97148 2.3148
upperneck -19.1578 -6.63985 4.42878
head -5.14027 -3.92331 1.24182
rclavicle 1.59028e-015 -2.54444e-014
rhumerus 38.28 54.1537 -48.3559
rradius 87.6533
rwrist -34.8394
rhand -23.8423 6.68271
rfingers 7.12502
rthumb 2.62969 -23.2808
lclavicle 1.59028e-015 -2.54444e-014
lhumerus -1.2581 -27.9118 39.685
lradius 105.383
lwrist 31.6667
lhand -27.0947 6.50666
lfingers 7.12502
lthumb -0.511548 36.4858
rfemur -35.3003 -4.1531 22.8694
rtibia 46.4538
rfoot -18.9668 -19.0628
rtoes -33.0244
lfemur -29.87 -4.51439 -18.1892
ltibia 47.3447
lfoot -19.079 4.72672
ltoes 0.66287
347
root -14.9464 14.7365 1.8827 8.57987 -63.2236 -7.84631
lowerback 24.5112 2.20983 -1.41125
upperback 11.812 1.75254 -1.37799
thorax -0.612737 0.553107 -1.10038
lowerneck -3.71991 -5.33288 2.07605
upperneck -18.0715 -7.11983 4.50368
head -4.73934 -4.10823 1.27857
rclavicle 1.35174e-014 -5.56597e-015
rhumerus 39.7109 53.6128 -46.7077
rradius 88.1216
rwrist -33.162
rhand -22.679 7.96524
rfingers 7.12502
rthumb 3.75305 -21.9815
lclavicle 1.35174e-014 -5.56597e-015
lhumerus -1.61384 -26.8153 37.3656
lradius 106.058
lwrist 27.6586
lhand -28.7721 4.49531
lfingers 7.12502
lthumb -2.13159 34.4644
rfemur -33.8083 -5.38555 23.2033
rtibia 47.8436
rfoot -21.2929 -20.7155
rtoes -30.1008
lfemur -28.5099 -4.29796 -18.3443
ltibia 46.1276
lfoot -18.7832 4.99005
ltoes 0.540646
348
root -14.9306 14.7788 1.90259 7.77977 -63.6319 -7.38523
lowerback 23.5986 2.47662 -1.59541
upperback 11.3377 2.12802 -1.41027
thorax -0.70011 0.755311 -1.10073
lowerneck -4.22471 -5.69287 1.96546
upperneck -16.4344 -7.6477 4.35974
head -4.60711 -4.2951 1.35122
rclavicle 6.36111e-015 0
rhumerus 40.7153 52.6775 -45.0887
rradius 89.0186
rwrist -32.8398
rhand -21.7245 6.85394
rfingers 7.12502
rthumb 4.67478 -23.0745
lclavicle 6.36111e-015 0
lhumerus -1.91692 -25.609 34.91
lradius 106.641
lwrist 22.3693
lhand -30.6964 1.49762
lfingers 7.12502
lthumb -3.98995 31.44
rfemur -32.3584 -6.60148 23.2102
rtibia 49.2575
rfoot -23.3695 -22.0369
rtoes -25.763
lfemur -27.3468 -4.09092 -18.7399
ltibia 44.9248
lfoot -18.456 5.27478
ltoes 0.25305
349
root -14.9088 14.8155 1.92687 6.81654 -63.8142 -6.85225
lowerback 22.8671 2.60296 -1.60145
upperback 10.8726 2.34983 -1.52137
thorax -0.849374 0.88929 -1.25153
lowerneck -4.37647 -5.98884 1.97445
upperneck -15.4857 -8.03631 4.36427
head -4.22146 -4.45529 1.31299
rclavicle 4.37326e-015 3.97569e-014
rhumerus 41.0872 51.9234 -43.7916
rradius 89.4418
rwrist -31.3662
rhand -21.646 8.41031
rfingers 7.12502
rthumb 4.75056 -21.5164
lclavicle 4.37326e-015 3.97569e-014
lhumerus -2.18917 -24.0267 32.2971
lradius 107.247
lwrist 15.9584
lhand -32.422 -0.172023
lfingers 7.12502
lthumb -5.65616 29.7325
rfemur -30.6662 -8.01542 23.0606
rtibia 50.6203
rfoot -24.8824 -22.9662
rtoes -24.1148
lfemur -26.1779 -4.11927 -19.1836
ltibia 43.747
lfoot -18.0133 5.75484
ltoes -0.468389
350
root -14.9003 14.8538 1.93871 5.7278 -63.9946 -6.24263
lowerback 22.1455 2.82562 -1.89109
upperback 10.39 2.64083 -1.59941
thorax -1.02909 1.04608 -1.22017
lowerneck -4.36172 -6.29863 1.93665
upperneck -14.5647 -8.42486 4.47398
head -3.87718 -4.6182 1.32416
rclavicle 8.26944e-014 -1.59028e-014
rhumerus 40.147 50.8028 -43.4654
rradius 90.0508
rwrist -31.0588
rhand -20.3642 8.96618
rfingers 7.12502
rthumb 5.98825 -20.9292
lclavicle 8.26944e-014 -1.59028e-014
lhumerus -2.45455 -22.2811 29.7178
lradius 107.979
lwrist 10.479
lhand -34.1291 -1.85937
lfingers 7.12502
lthumb -7.30416 27.9946
rfemur -28.6298 -9.35751 22.8375
rtibia 51.7834
rfoot -25.7139 -23.8099
rtoes -23.381
lfemur -24.903 -4.05189 -19.5967
ltibia 42.601
lfoot -17.6544 6.16309
ltoes -1.06343
